<?xml version="1.0" encoding="UTF-8"?>
<!DOCTYPE svg PUBLIC "-//W3C//DTD SVG 1.1//EN" "http://www.w3.org/Graphics/SVG/1.1/DTD/svg11.dtd">
<svg xmlns="http://www.w3.org/2000/svg" version="1.1" width="631px" height="152px" style="shape-rendering:geometricPrecision; text-rendering:geometricPrecision; image-rendering:optimizeQuality; fill-rule:evenodd; clip-rule:evenodd" xmlns:xlink="http://www.w3.org/1999/xlink">
<g><path style="opacity:0.55" fill="#f89b21" d="M 69.5,26.5 C 67.36,31.5851 65.0266,36.5851 62.5,41.5C 62.5,40.1667 61.8333,39.5 60.5,39.5C 64.5031,34.1587 66.8365,28.1587 67.5,21.5C 69.3258,15.2458 69.9925,8.91249 69.5,2.5C 70.3976,5.61577 71.0643,8.78244 71.5,12C 70.7095,16.825 70.0428,21.6583 69.5,26.5 Z"/></g>
<g><path style="opacity:0.548" fill="#eb2027" d="M 82.5,15.5 C 88.8769,17.4641 89.8769,20.9641 85.5,26C 79,27.5 76.5,25 78,18.5C 79.4087,17.2189 80.9087,16.2189 82.5,15.5 Z M 85.5,19.5 C 86.7759,20.3864 86.7759,21.3864 85.5,22.5C 84.913,21.7666 84.913,20.7666 85.5,19.5 Z"/></g>
<g><path style="opacity:0.545" fill="#eb2027" d="M 343.5,37.5 C 349.482,39.6105 350.482,43.1105 346.5,48C 340,49.5 337.5,47 339,40.5C 340.409,39.2189 341.909,38.2189 343.5,37.5 Z M 346.5,42.5 C 347.773,43.0768 347.773,43.7435 346.5,44.5C 345.537,44.0302 345.537,43.3635 346.5,42.5 Z"/></g>
<g><path style="opacity:0.973" fill="#eb2027" d="M 110.5,38.5 C 116.833,38.5 123.167,38.5 129.5,38.5C 129.5,48.8333 129.5,59.1667 129.5,69.5C 142.5,69.5 155.5,69.5 168.5,69.5C 168.5,59.1667 168.5,48.8333 168.5,38.5C 174.833,38.5 181.167,38.5 187.5,38.5C 187.5,68.1667 187.5,97.8333 187.5,127.5C 181.167,127.5 174.833,127.5 168.5,127.5C 168.5,114.167 168.5,100.833 168.5,87.5C 155.5,87.5 142.5,87.5 129.5,87.5C 129.5,100.833 129.5,114.167 129.5,127.5C 123.167,127.5 116.833,127.5 110.5,127.5C 110.5,97.8333 110.5,68.1667 110.5,38.5 Z"/></g>
<g><path style="opacity:0.964" fill="#eb2027" d="M 203.5,38.5 C 209.833,38.5 216.167,38.5 222.5,38.5C 222.5,62.1667 222.5,85.8333 222.5,109.5C 237.167,109.5 251.833,109.5 266.5,109.5C 266.5,115.5 266.5,121.5 266.5,127.5C 245.5,127.5 224.5,127.5 203.5,127.5C 203.5,97.8333 203.5,68.1667 203.5,38.5 Z"/></g>
<g><path style="opacity:0.955" fill="#eb2027" d="M 266.5,38.5 C 288.5,38.5 310.5,38.5 332.5,38.5C 332.666,44.1764 332.499,49.8431 332,55.5C 320.566,79.5341 308.733,103.367 296.5,127C 288.833,127.667 281.167,127.667 273.5,127C 285.245,103.51 297.245,80.1767 309.5,57C 295.171,56.5001 280.837,56.3334 266.5,56.5C 266.5,50.5 266.5,44.5 266.5,38.5 Z"/></g>
<g><path style="opacity:0.945" fill="#eb2027" d="M 363.5,39.5 C 381.167,39.5 398.833,39.5 416.5,39.5C 416.5,42.1667 416.5,44.8333 416.5,47.5C 401.833,47.5 387.167,47.5 372.5,47.5C 372.5,57.8333 372.5,68.1667 372.5,78.5C 386.167,78.5 399.833,78.5 413.5,78.5C 413.5,81.1667 413.5,83.8333 413.5,86.5C 399.833,86.5 386.167,86.5 372.5,86.5C 372.5,100.5 372.5,114.5 372.5,128.5C 369.5,128.5 366.5,128.5 363.5,128.5C 363.5,98.8333 363.5,69.1667 363.5,39.5 Z"/></g>
<g><path style="opacity:0.937" fill="#eb2027" d="M 432.5,39.5 C 435.5,39.5 438.5,39.5 441.5,39.5C 441.5,52.5 441.5,65.5 441.5,78.5C 457.5,78.5 473.5,78.5 489.5,78.5C 489.5,65.5 489.5,52.5 489.5,39.5C 492.5,39.5 495.5,39.5 498.5,39.5C 498.5,69.1667 498.5,98.8333 498.5,128.5C 495.5,128.5 492.5,128.5 489.5,128.5C 489.5,114.5 489.5,100.5 489.5,86.5C 473.5,86.5 457.5,86.5 441.5,86.5C 441.5,100.5 441.5,114.5 441.5,128.5C 438.5,128.5 435.5,128.5 432.5,128.5C 432.5,98.8333 432.5,69.1667 432.5,39.5 Z"/></g>
<g><path style="opacity:0.935" fill="#eb2027" d="M 521.5,39.5 C 524.5,39.5 527.5,39.5 530.5,39.5C 530.5,69.1667 530.5,98.8333 530.5,128.5C 527.5,128.5 524.5,128.5 521.5,128.5C 521.5,98.8333 521.5,69.1667 521.5,39.5 Z"/></g>
<g><path style="opacity:0.909" fill="#eb2027" d="M 553.5,39.5 C 564.505,39.3335 575.505,39.5002 586.5,40C 603.657,42.4967 610.824,52.33 608,69.5C 604.529,79.6679 597.362,85.1679 586.5,86C 595.757,99.6897 604.091,113.856 611.5,128.5C 607.894,128.789 604.394,128.456 601,127.5C 593.419,114.002 585.585,100.669 577.5,87.5C 572.544,86.5059 567.544,86.1725 562.5,86.5C 562.5,100.5 562.5,114.5 562.5,128.5C 559.5,128.5 556.5,128.5 553.5,128.5C 553.5,98.8333 553.5,69.1667 553.5,39.5 Z M 562.5,47.5 C 571.219,47.2026 579.886,47.7026 588.5,49C 599.632,54.0631 602.132,61.8965 596,72.5C 591.501,76.1115 586.334,77.9449 580.5,78C 574.509,78.4995 568.509,78.6662 562.5,78.5C 562.5,68.1667 562.5,57.8333 562.5,47.5 Z"/></g>
<g><path style="opacity:0.591" fill="#eb2027" d="M 617.5,40.5 C 625.486,39.998 627.486,43.1647 623.5,50C 618.921,51.5772 615.921,50.0772 614.5,45.5C 615.065,43.4908 616.065,41.8241 617.5,40.5 Z M 617.5,42.5 C 618.613,43.9464 618.78,45.6131 618,47.5C 616.372,46.0383 616.205,44.3717 617.5,42.5 Z"/></g>
<g><path style="opacity:0.899" fill="#e5252a" d="M 88.5,75.5 C 81.8333,75.5 75.1667,75.5 68.5,75.5C 72.5638,65.2422 75.0638,54.5756 76,43.5C 82.6712,53.1776 86.8378,63.8443 88.5,75.5 Z"/></g>
<g><path style="opacity:0.947" fill="#e7272a" d="M 56.5,-0.5 C 57.1667,-0.5 57.8333,-0.5 58.5,-0.5C 62.0528,6.60578 65.0528,13.9391 67.5,21.5C 66.8365,28.1587 64.5031,34.1587 60.5,39.5C 53.5929,49.2478 46.0929,58.5811 38,67.5C 36.9055,69.0779 36.0722,70.7446 35.5,72.5C 33.4776,74.5313 31.8109,76.8646 30.5,79.5C 26.8333,79.5 23.1667,79.5 19.5,79.5C 25.7786,65.9489 34.2786,53.9489 45,43.5C 56.2428,30.7912 60.0762,16.1245 56.5,-0.5 Z"/></g>
<g><path style="opacity:0.941" fill="#e6262a" d="M 69.5,26.5 C 74.0116,45.7795 70.6783,63.4462 59.5,79.5C 56.9407,79.8016 54.6074,79.4682 52.5,78.5C 54.4383,74.9568 56.1049,71.2901 57.5,67.5C 59.2766,64.4954 60.2766,61.1621 60.5,57.5C 62.1446,52.7664 62.8112,47.7664 62.5,42.5C 62.5,42.1667 62.5,41.8333 62.5,41.5C 65.0266,36.5851 67.36,31.5851 69.5,26.5 Z"/></g>
<g><path style="opacity:0.856" fill="#e62729" d="M 12.5,82.5 C 9.16667,82.5 5.83333,82.5 2.5,82.5C 5.00454,76.4874 8.1712,70.8207 12,65.5C 21.7016,56.1298 31.7016,47.1298 42,38.5C 41.6017,40.6313 40.6017,42.6313 39,44.5C 27.9363,55.7104 19.103,68.3771 12.5,82.5 Z"/></g>
<g><path style="opacity:1" fill="#ee8127" d="M 62.5,42.5 C 62.8112,47.7664 62.1446,52.7664 60.5,57.5C 57.9407,57.8016 55.6074,57.4682 53.5,56.5C 56.5339,51.8107 59.5339,47.144 62.5,42.5 Z"/></g>
<g><path style="opacity:1" fill="#f39e23" d="M 53.5,56.5 C 55.6074,57.4682 57.9407,57.8016 60.5,57.5C 60.2766,61.1621 59.2766,64.4954 57.5,67.5C 53.8333,66.8333 50.1667,66.1667 46.5,65.5C 48.4821,62.1897 50.8154,59.1897 53.5,56.5 Z"/></g>
<g><path style="opacity:1" fill="#fbdb2b" d="M 60.5,39.5 C 61.8333,39.5 62.5,40.1667 62.5,41.5C 62.5,41.8333 62.5,42.1667 62.5,42.5C 59.5339,47.144 56.5339,51.8107 53.5,56.5C 50.8154,59.1897 48.4821,62.1897 46.5,65.5C 44.5,68.1667 42.5,70.8333 40.5,73.5C 39.0813,72.5489 37.4147,72.2155 35.5,72.5C 36.0722,70.7446 36.9055,69.0779 38,67.5C 46.0929,58.5811 53.5929,49.2478 60.5,39.5 Z"/></g>
<g><path style="opacity:1" fill="#f8bc1a" d="M 46.5,65.5 C 50.1667,66.1667 53.8333,66.8333 57.5,67.5C 56.1049,71.2901 54.4383,74.9568 52.5,78.5C 51.8333,79.1667 51.1667,79.8333 50.5,80.5C 46.3656,79.5151 42.0323,79.1818 37.5,79.5C 38.5,77.5 39.5,75.5 40.5,73.5C 42.5,70.8333 44.5,68.1667 46.5,65.5 Z"/></g>
<g><path style="opacity:1" fill="#fbe461" d="M 35.5,72.5 C 37.4147,72.2155 39.0813,72.5489 40.5,73.5C 39.5,75.5 38.5,77.5 37.5,79.5C 35.8333,82.1667 34.1667,84.8333 32.5,87.5C 30.3792,87.3253 28.3792,87.6586 26.5,88.5C 26.5,87.8333 26.5,87.1667 26.5,86.5C 28.0709,84.3649 29.4043,82.0316 30.5,79.5C 31.8109,76.8646 33.4776,74.5313 35.5,72.5 Z"/></g>
<g><path style="opacity:0.95" fill="#e74a2a" d="M 19.5,79.5 C 23.1667,79.5 26.8333,79.5 30.5,79.5C 29.4043,82.0316 28.0709,84.3649 26.5,86.5C 23.5,86.5 20.5,86.5 17.5,86.5C 17.8782,84.079 18.5448,81.7457 19.5,79.5 Z"/></g>
<g><path style="opacity:0.941" fill="#e85329" d="M 68.5,75.5 C 75.1667,75.5 81.8333,75.5 88.5,75.5C 89.3705,78.003 90.0372,80.6697 90.5,83.5C 81.5,83.5 72.5,83.5 63.5,83.5C 65.1807,80.7972 66.8474,78.1305 68.5,75.5 Z"/></g>
<g><path style="opacity:0.966" fill="#ea6629" d="M 63.5,83.5 C 72.5,83.5 81.5,83.5 90.5,83.5C 90.5,85.1667 90.5,86.8333 90.5,88.5C 85.8333,88.5 81.1667,88.5 76.5,88.5C 76.1667,88.5 75.8333,88.5 75.5,88.5C 75.1667,87.1667 74.8333,87.1667 74.5,88.5C 69.8333,88.5 65.1667,88.5 60.5,88.5C 61.7515,86.9991 62.7515,85.3325 63.5,83.5 Z"/></g>
<g><path style="opacity:0.934" fill="#e85629" d="M 52.5,78.5 C 54.6074,79.4682 56.9407,79.8016 59.5,79.5C 57.6465,83.2208 55.3131,86.5541 52.5,89.5C 49.9407,89.8016 47.6074,89.4682 45.5,88.5C 47.1667,85.8333 48.8333,83.1667 50.5,80.5C 51.1667,79.8333 51.8333,79.1667 52.5,78.5 Z"/></g>
<g><path style="opacity:1" fill="#fad60f" d="M 37.5,79.5 C 42.0323,79.1818 46.3656,79.5151 50.5,80.5C 48.8333,83.1667 47.1667,85.8333 45.5,88.5C 44.1667,89.8333 42.8333,91.1667 41.5,92.5C 38.3752,91.5206 35.0419,91.1872 31.5,91.5C 31.8333,90.1667 32.1667,88.8333 32.5,87.5C 34.1667,84.8333 35.8333,82.1667 37.5,79.5 Z"/></g>
<g><path style="opacity:0.947" fill="#eb6d28" d="M 2.5,82.5 C 5.83333,82.5 9.16667,82.5 12.5,82.5C 11.8333,85.8333 11.1667,89.1667 10.5,92.5C 7.16667,92.5 3.83333,92.5 0.5,92.5C 0.851124,89.0968 1.51779,85.7635 2.5,82.5 Z"/></g>
<g><path style="opacity:1" fill="#fbe31f" d="M 31.5,91.5 C 35.0419,91.1872 38.3752,91.5206 41.5,92.5C 40.8333,94.5 40.1667,96.5 39.5,98.5C 37.2057,101.37 35.8723,104.703 35.5,108.5C 33.1667,108.5 30.8333,108.5 28.5,108.5C 28.3486,102.594 29.3486,96.9277 31.5,91.5 Z"/></g>
<g><path style="opacity:0.95" fill="#ed7d27" d="M 60.5,88.5 C 65.1667,88.5 69.8333,88.5 74.5,88.5C 73.9213,91.3311 72.588,93.6644 70.5,95.5C 65.8333,95.5 61.1667,95.5 56.5,95.5C 57.5686,93.0313 58.9019,90.6979 60.5,88.5 Z"/></g>
<g><path style="opacity:0.982" fill="#ec7c27" d="M 76.5,88.5 C 81.1667,88.5 85.8333,88.5 90.5,88.5C 90.5,90.8333 90.5,93.1667 90.5,95.5C 85.8333,95.5 81.1667,95.5 76.5,95.5C 76.5,93.1667 76.5,90.8333 76.5,88.5 Z"/></g>
<g><path style="opacity:0.919" fill="#eb7128" d="M 17.5,86.5 C 20.5,86.5 23.5,86.5 26.5,86.5C 26.5,87.1667 26.5,87.8333 26.5,88.5C 25.8333,91.1667 25.1667,93.8333 24.5,96.5C 21.1667,96.5 17.8333,96.5 14.5,96.5C 15.2097,92.9752 16.2097,89.6418 17.5,86.5 Z"/></g>
<g><path style="opacity:0.943" fill="#ec7a27" d="M 45.5,88.5 C 47.6074,89.4682 49.9407,89.8016 52.5,89.5C 50.5,92.8333 48.5,96.1667 46.5,99.5C 43.9407,99.8016 41.6074,99.4682 39.5,98.5C 40.1667,96.5 40.8333,94.5 41.5,92.5C 42.8333,91.1667 44.1667,89.8333 45.5,88.5 Z"/></g>
<g><path style="opacity:0.919" fill="#ef9025" d="M 0.5,92.5 C 3.83333,92.5 7.16667,92.5 10.5,92.5C 10.5,95.1667 10.5,97.8333 10.5,100.5C 7.16667,100.5 3.83333,100.5 0.5,100.5C 0.5,97.8333 0.5,95.1667 0.5,92.5 Z"/></g>
<g><path style="opacity:0.969" fill="#f09125" d="M 56.5,95.5 C 61.1667,95.5 65.8333,95.5 70.5,95.5C 69.2464,98.0934 67.5798,100.427 65.5,102.5C 64.8333,103.167 64.1667,103.833 63.5,104.5C 58.8333,104.5 54.1667,104.5 49.5,104.5C 51.4821,101.19 53.8154,98.1897 56.5,95.5 Z"/></g>
<g><path style="opacity:1" fill="#fcec8b" d="M 32.5,87.5 C 32.1667,88.8333 31.8333,90.1667 31.5,91.5C 29.3486,96.9277 28.3486,102.594 28.5,108.5C 28.5,110.5 28.5,112.5 28.5,114.5C 27.5184,111.038 27.185,107.371 27.5,103.5C 26.5,103.5 25.5,103.5 24.5,103.5C 24.5,103.167 24.5,102.833 24.5,102.5C 24.5,100.5 24.5,98.5 24.5,96.5C 25.1667,93.8333 25.8333,91.1667 26.5,88.5C 28.3792,87.6586 30.3792,87.3253 32.5,87.5 Z"/></g>
<g><path style="opacity:1" fill="#fbe545" d="M 75.5,88.5 C 75.5,93.5 75.5,98.5 75.5,103.5C 71.9581,103.813 68.6248,103.479 65.5,102.5C 67.5798,100.427 69.2464,98.0934 70.5,95.5C 72.588,93.6644 73.9213,91.3311 74.5,88.5C 74.8333,87.1667 75.1667,87.1667 75.5,88.5 Z"/></g>
<g><path style="opacity:0.97" fill="#f19824" d="M 75.5,88.5 C 75.8333,88.5 76.1667,88.5 76.5,88.5C 76.5,90.8333 76.5,93.1667 76.5,95.5C 81.1667,95.5 85.8333,95.5 90.5,95.5C 90.4781,100.272 89.8115,104.939 88.5,109.5C 83.706,110.097 79.3727,109.43 75.5,107.5C 75.5,106.167 75.5,104.833 75.5,103.5C 75.5,98.5 75.5,93.5 75.5,88.5 Z"/></g>
<g><path style="opacity:0.969" fill="#ef8f25" d="M 14.5,96.5 C 17.8333,96.5 21.1667,96.5 24.5,96.5C 24.5,98.5 24.5,100.5 24.5,102.5C 23.5489,103.919 23.2155,105.585 23.5,107.5C 20.5,107.5 17.5,107.5 14.5,107.5C 14.5,103.833 14.5,100.167 14.5,96.5 Z"/></g>
<g><path style="opacity:0.931" fill="#f4a821" d="M 49.5,104.5 C 54.1667,104.5 58.8333,104.5 63.5,104.5C 60.8046,107.526 58.1379,110.526 55.5,113.5C 52.1667,113.5 48.8333,113.5 45.5,113.5C 46.0659,110.127 47.3993,107.127 49.5,104.5 Z"/></g>
<g><path style="opacity:0.879" fill="#f5af1d" d="M 0.5,100.5 C 3.83333,100.5 7.16667,100.5 10.5,100.5C 10.5079,103.545 10.8413,106.545 11.5,109.5C 8.5,109.5 5.5,109.5 2.5,109.5C 1.58262,106.583 0.915958,103.583 0.5,100.5 Z"/></g>
<g><path style="opacity:0.902" fill="#f29b23" d="M 39.5,98.5 C 41.6074,99.4682 43.9407,99.8016 46.5,99.5C 44.1916,103.778 42.1916,108.111 40.5,112.5C 38.8333,112.5 37.1667,112.5 35.5,112.5C 35.5,111.5 35.5,110.5 35.5,109.5C 35.5,109.167 35.5,108.833 35.5,108.5C 35.8723,104.703 37.2057,101.37 39.5,98.5 Z"/></g>
<g><path style="opacity:1" fill="#fbea76" d="M 65.5,102.5 C 68.6248,103.479 71.9581,103.813 75.5,103.5C 75.5,104.833 75.5,106.167 75.5,107.5C 74.7752,111.231 73.7752,114.898 72.5,118.5C 66.9262,116.547 60.9262,115.88 54.5,116.5C 54.5569,115.391 54.8902,114.391 55.5,113.5C 58.1379,110.526 60.8046,107.526 63.5,104.5C 64.1667,103.833 64.8333,103.167 65.5,102.5 Z"/></g>
<g><path style="opacity:0.945" fill="#f5ae23" d="M 24.5,102.5 C 24.5,102.833 24.5,103.167 24.5,103.5C 24.4372,108.203 24.7705,112.87 25.5,117.5C 23.0521,118.473 20.3854,118.806 17.5,118.5C 15.8816,115.112 14.8816,111.446 14.5,107.5C 17.5,107.5 20.5,107.5 23.5,107.5C 23.2155,105.585 23.5489,103.919 24.5,102.5 Z"/></g>
<g><path style="opacity:0.879" fill="#f8ca0f" d="M 2.5,109.5 C 5.5,109.5 8.5,109.5 11.5,109.5C 12.3705,112.112 13.0372,114.779 13.5,117.5C 11.1667,117.5 8.83333,117.5 6.5,117.5C 4.659,115.151 3.32567,112.485 2.5,109.5 Z"/></g>
<g><path style="opacity:1" fill="#fbe768" d="M 28.5,108.5 C 30.8333,108.5 33.1667,108.5 35.5,108.5C 35.5,108.833 35.5,109.167 35.5,109.5C 34.5128,114.305 34.1795,119.305 34.5,124.5C 34.5,124.833 34.5,125.167 34.5,125.5C 33.5233,122.713 33.19,119.713 33.5,116.5C 31.2188,116.923 29.5521,116.256 28.5,114.5C 28.5,112.5 28.5,110.5 28.5,108.5 Z"/></g>
<g><path style="opacity:0.939" fill="#f6ba18" d="M 95.5,120.5 C 87.8333,120.5 80.1667,120.5 72.5,120.5C 72.5,119.833 72.5,119.167 72.5,118.5C 73.7752,114.898 74.7752,111.231 75.5,107.5C 79.3727,109.43 83.706,110.097 88.5,109.5C 87.5296,112.562 86.6962,115.562 86,118.5C 91.1401,114.365 95.1401,109.365 98,103.5C 98.2982,109.314 97.4649,114.981 95.5,120.5 Z"/></g>
<g><path style="opacity:0.875" fill="#f6ba19" d="M 35.5,109.5 C 35.5,110.5 35.5,111.5 35.5,112.5C 37.1667,112.5 38.8333,112.5 40.5,112.5C 40.1082,116.582 39.4416,120.582 38.5,124.5C 37.1667,124.5 35.8333,124.5 34.5,124.5C 34.1795,119.305 34.5128,114.305 35.5,109.5 Z"/></g>
<g><path style="opacity:0.928" fill="#f8c414" d="M 45.5,113.5 C 48.8333,113.5 52.1667,113.5 55.5,113.5C 54.8902,114.391 54.5569,115.391 54.5,116.5C 52.3199,118.863 50.6532,121.53 49.5,124.5C 47.5,124.5 45.5,124.5 43.5,124.5C 43.4165,120.665 44.0832,116.998 45.5,113.5 Z"/></g>
<g><path style="opacity:1" fill="#fcf1a7" d="M 24.5,103.5 C 25.5,103.5 26.5,103.5 27.5,103.5C 27.185,107.371 27.5184,111.038 28.5,114.5C 29.5521,116.256 31.2188,116.923 33.5,116.5C 33.19,119.713 33.5233,122.713 34.5,125.5C 34.5,126.167 34.5,126.833 34.5,127.5C 32.6096,127.703 31.1096,127.037 30,125.5C 29.6012,125.728 29.4346,126.062 29.5,126.5C 27.7757,123.655 26.4423,120.655 25.5,117.5C 24.7705,112.87 24.4372,108.203 24.5,103.5 Z"/></g>
<g><path style="opacity:1" fill="#fcee98" d="M 54.5,116.5 C 60.9262,115.88 66.9262,116.547 72.5,118.5C 72.5,119.167 72.5,119.833 72.5,120.5C 71.3228,122.679 70.3228,125.013 69.5,127.5C 69.5,128.167 69.1667,128.5 68.5,128.5C 62.588,126.544 56.2547,125.877 49.5,126.5C 49.5,125.833 49.5,125.167 49.5,124.5C 50.6532,121.53 52.3199,118.863 54.5,116.5 Z"/></g>
<g><path style="opacity:0.777" fill="#f9e020" d="M 6.5,117.5 C 8.83333,117.5 11.1667,117.5 13.5,117.5C 16.2026,123.897 19.7026,129.897 24,135.5C 24.6877,136.332 24.521,136.998 23.5,137.5C 16.316,131.994 10.6494,125.327 6.5,117.5 Z"/></g>
<g><path style="opacity:0.975" fill="#f9ce0d" d="M 72.5,120.5 C 80.1667,120.5 87.8333,120.5 95.5,120.5C 94.6948,122.915 93.6948,125.249 92.5,127.5C 84.8333,127.5 77.1667,127.5 69.5,127.5C 70.3228,125.013 71.3228,122.679 72.5,120.5 Z"/></g>
<g><path style="opacity:0.935" fill="#f8ca15" d="M 25.5,117.5 C 26.4423,120.655 27.7757,123.655 29.5,126.5C 29.8333,127.833 30.1667,129.167 30.5,130.5C 28.1667,130.5 25.8333,130.5 23.5,130.5C 20.4598,127.086 18.4598,123.086 17.5,118.5C 20.3854,118.806 23.0521,118.473 25.5,117.5 Z"/></g>
<g><path style="opacity:1" fill="#fdf7d1" d="M 34.5,127.5 C 35.2098,132.104 36.3765,136.437 38,140.5C 35.2519,137.266 32.7519,133.932 30.5,130.5C 30.1667,129.167 29.8333,127.833 29.5,126.5C 29.4346,126.062 29.6012,125.728 30,125.5C 31.1096,127.037 32.6096,127.703 34.5,127.5 Z"/></g>
<g><path style="opacity:1" fill="#fdf4bb" d="M 49.5,126.5 C 56.2547,125.877 62.588,126.544 68.5,128.5C 67.4434,130.941 66.11,133.275 64.5,135.5C 64.8333,135.833 65.1667,136.167 65.5,136.5C 68.8361,134.982 72.1694,133.815 75.5,133C 73.9697,135.352 72.3031,137.519 70.5,139.5C 64.021,138.509 57.3543,138.176 50.5,138.5C 50.5,139.5 50.5,140.5 50.5,141.5C 49.5128,136.695 49.1795,131.695 49.5,126.5 Z"/></g>
<g><path style="opacity:0.906" fill="#f9e021" d="M 43.5,124.5 C 45.5,124.5 47.5,124.5 49.5,124.5C 49.5,125.167 49.5,125.833 49.5,126.5C 49.1795,131.695 49.5128,136.695 50.5,141.5C 50.5069,144.8 52.0069,146.8 55,147.5C 61.2467,146.714 66.4134,144.048 70.5,139.5C 72.3031,137.519 73.9697,135.352 75.5,133C 72.1694,133.815 68.8361,134.982 65.5,136.5C 65.1667,136.167 64.8333,135.833 64.5,135.5C 66.11,133.275 67.4434,130.941 68.5,128.5C 69.1667,128.5 69.5,128.167 69.5,127.5C 77.1667,127.5 84.8333,127.5 92.5,127.5C 85.0074,140.915 73.6741,148.915 58.5,151.5C 55.8333,151.5 53.1667,151.5 50.5,151.5C 45.825,143.134 43.4917,134.134 43.5,124.5 Z"/></g>
<g><path style="opacity:1" fill="#fdf8d5" d="M 70.5,139.5 C 66.4134,144.048 61.2467,146.714 55,147.5C 52.0069,146.8 50.5069,144.8 50.5,141.5C 50.5,140.5 50.5,139.5 50.5,138.5C 57.3543,138.176 64.021,138.509 70.5,139.5 Z"/></g>
<g><path style="opacity:0.79" fill="#f9de1c" d="M 34.5,124.5 C 35.8333,124.5 37.1667,124.5 38.5,124.5C 38.7367,134.02 41.2367,142.687 46,150.5C 41.1667,147 36.3333,143.5 31.5,140C 28.2463,137.253 25.5797,134.086 23.5,130.5C 25.8333,130.5 28.1667,130.5 30.5,130.5C 32.7519,133.932 35.2519,137.266 38,140.5C 36.3765,136.437 35.2098,132.104 34.5,127.5C 34.5,126.833 34.5,126.167 34.5,125.5C 34.5,125.167 34.5,124.833 34.5,124.5 Z"/></g>
</svg>
